#!OML:ASF X:\für Bonn\!DataBase\2005_08_12_Daniel\c3d\Daniel.ASF
:FULLY-SPECIFIED
:DEGREES
188
root 4.17254 16.863 -1.98935 -851.225 -76.2716 814.343
lowerback 32.8686 3.35778 2.32824
upperback 11.692 2.6911 -9.37734
thorax -3.69159 0.971784 -12.122
lowerneck 15.8744 13.2028 1.80129
upperneck 26.5722 16.0196 1.36743
head 5.84656 7.34397 0.108946
rclavicle 5.09883e-014 -4.77083e-014
rhumerus -44.0552 0.221744 -92.3065
rradius 34.2855
rwrist 12.3239
rhand -20.418 16.7596
rfingers 7.12502
rthumb 5.9363 -13.1372
lclavicle 5.09883e-014 -4.77083e-014
lhumerus -42.5827 22.51 55.9323
lradius 128.286
lwrist 210.487
lhand -6.38534 22.4114
lfingers 7.12502
lthumb 19.4619 51.4574
rfemur 19.131 -0.56293 8.80477
rtibia 39.4312
rfoot -20.1 2.48929
rtoes -2.06648
lfemur -73.1031 6.98338 -21.0917
ltibia 102.225
lfoot 18.633 6.81044
ltoes -10.2751
189
root 4.18742 16.8592 -2.00577 -849.7 -76.6744 813.735
lowerback 32.1227 3.13758 2.43757
upperback 11.5012 2.54496 -9.13398
thorax -3.64104 0.919223 -11.8444
lowerneck 16.2587 13.3498 1.93502
upperneck 25.7587 16.3081 1.1087
head 5.56267 7.51626 -0.0370005
rclavicle 2.98177e-015 -4.77083e-015
rhumerus -44.4022 -0.0297215 -91.4326
rradius 32.8133
rwrist 13.4549
rhand -19.7704 16.2729
rfingers 7.12502
rthumb 6.56151 -13.6055
lclavicle 2.98177e-015 -4.77083e-015
lhumerus -41.1949 22.4646 55.951
lradius 128.432
lwrist 210.418
lhand -6.60356 21.7797
lfingers 7.12502
lthumb 19.2521 50.8468
rfemur 17.8063 -1.18821 9.03978
rtibia 40.1479
rfoot -20.1773 2.62944
rtoes -1.68937
lfemur -71.94 7.23346 -21.6531
ltibia 103.359
lfoot 17.6484 6.61265
ltoes -10.3414
190
root 4.20102 16.8514 -2.02106 -848.086 -77.0801 813.028
lowerback 31.378 2.92369 2.54665
upperback 11.3106 2.40469 -8.86252
thorax -3.58332 0.869241 -11.5401
lowerneck 16.5768 13.5084 1.99242
upperneck 24.9528 16.5974 0.897817
head 5.28314 7.68574 -0.153872
rclavicle 2.85753e-014 -5.48646e-014
rhumerus -44.7119 -0.409389 -90.3725
rradius 31.2791
rwrist 14.7922
rhand -19.1259 15.9385
rfingers 7.12502
rthumb 7.18362 -13.9196
lclavicle 2.85753e-014 -5.48646e-014
lhumerus -39.8723 22.4344 55.9948
lradius 128.596
lwrist 210.3
lhand -6.75788 21.1379
lfingers 7.12502
lthumb 19.1037 50.2197
rfemur 16.4797 -1.85678 9.24386
rtibia 40.8783
rfoot -20.2458 2.82835
rtoes -1.31857
lfemur -70.6972 7.49218 -22.1553
ltibia 104.39
lfoot 16.6908 6.24645
ltoes -10.9949
191
root 4.21479 16.8395 -2.03601 -846.28 -77.4754 812.143
lowerback 30.6372 2.71859 2.61965
upperback 11.0994 2.26318 -8.56572
thorax -3.54501 0.81643 -11.1907
lowerneck 16.7723 13.697 1.95852
upperneck 24.2229 16.9062 0.758513
head 5.03418 7.85948 -0.227123
rclavicle 4.05024e-014 5.56597e-015
rhumerus -45.0547 -0.864402 -89.1583
rradius 29.7889
rwrist 16.2678
rhand -18.4879 15.6527
rfingers 7.12502
rthumb 7.7994 -14.1835
lclavicle 4.05024e-014 5.56597e-015
lhumerus -38.6302 22.4509 56.1147
lradius 128.748
lwrist 210.141
lhand -6.887 20.6128
lfingers 7.12502
lthumb 18.9795 49.7068
rfemur 15.1048 -2.54718 9.43983
rtibia 41.6717
rfoot -20.3685 3.03311
rtoes -1.05339
lfemur -69.4014 7.75136 -22.63
ltibia 105.305
lfoot 15.8762 5.70644
ltoes -12.2638
192
root 4.22789 16.8224 -2.05018 -844.325 -77.8621 811.106
lowerback 29.9043 2.51721 2.67163
upperback 10.886 2.11681 -8.24945
thorax -3.50761 0.759833 -10.81
lowerneck 16.8918 13.9028 1.87128
upperneck 23.5258 17.2243 0.672228
head 4.79903 8.03583 -0.272425
rclavicle -5.01931e-014 -1.51076e-014
rhumerus -45.4204 -1.38979 -87.7992
rradius 28.3762
rwrist 17.8233
rhand -17.9191 15.3794
rfingers 7.12502
rthumb 8.3484 -14.4356
lclavicle -5.01931e-014 -1.51076e-014
lhumerus -37.4367 22.4858 56.2731
lradius 128.869
lwrist 210.01
lhand -6.99001 20.1996
lfingers 7.12502
lthumb 18.8804 49.3032
rfemur 13.7204 -3.26133 9.61686
rtibia 42.4933
rfoot -20.484 3.28974
rtoes -0.648203
lfemur -68.0414 8.00715 -23.0659
ltibia 106.111
lfoot 15.2923 5.0762
ltoes -13.7782
193
root 4.24274 16.8035 -2.06352 -842.19 -78.2458 809.936
lowerback 29.0483 2.3218 2.73641
upperback 10.7266 1.95415 -7.58595
thorax -3.4367 0.676747 -10.7451
lowerneck 17.0468 14.1143 1.75379
upperneck 22.7853 17.5442 0.580685
head 4.54481 8.21216 -0.320506
rclavicle 2.5196e-014 -9.54166e-015
rhumerus -45.8524 -2.08276 -86.2449
rradius 27.0923
rwrist 19.4423
rhand -17.4405 15.0803
rfingers 7.12502
rthumb 8.81026 -14.7158
lclavicle 2.5196e-014 -9.54166e-015
lhumerus -36.3194 22.4895 56.4494
lradius 128.987
lwrist 209.907
lhand -6.96431 19.9513
lfingers 7.12502
lthumb 18.9051 49.0526
rfemur 12.275 -3.9579 9.82732
rtibia 43.3074
rfoot -20.5857 3.51537
rtoes -0.209791
lfemur -66.6612 8.22838 -23.4484
ltibia 106.794
lfoot 14.9334 4.41044
ltoes -15.1437
194
root 4.26015 16.791 -2.07703 -839.909 -78.6091 808.699
lowerback 28.2556 2.13037 2.77736
upperback 10.4519 1.81795 -7.27929
thorax -3.42695 0.626292 -10.3232
lowerneck 17.1732 14.3183 1.66199
upperneck 22.0562 17.8577 0.478061
head 4.3028 8.38737 -0.374236
rclavicle -3.16565e-014 7.95139e-014
rhumerus -46.3369 -3.04027 -84.4783
rradius 25.9219
rwrist 21.2211
rhand -17.0361 14.6555
rfingers 7.12502
rthumb 9.20051 -15.1238
lclavicle -3.16565e-014 7.95139e-014
lhumerus -35.2351 22.4378 56.5753
lradius 129.094
lwrist 209.884
lhand -6.76004 19.7979
lfingers 7.12502
lthumb 19.1016 48.8799
rfemur 10.7655 -4.64097 10.0607
rtibia 44.0636
rfoot -20.6605 3.73539
rtoes 0.262778
lfemur -65.3889 8.41987 -23.7825
ltibia 107.385
lfoot 14.8336 3.61341
ltoes -16.5026
195
root 4.27895 16.7869 -2.09136 -837.353 -78.9419 807.202
lowerback 27.4349 1.94648 2.77848
upperback 10.1846 1.67643 -6.96594
thorax -3.3911 0.572686 -9.87246
lowerneck 17.6105 14.5146 1.56422
upperneck 20.7278 18.1532 0.283881
head 4.32124 8.5587 -0.458259
rclavicle 9.59136e-015 -2.3059e-014
rhumerus -46.7766 -4.27643 -82.4439
rradius 24.7266
rwrist 23.2082
rhand -16.7966 14.2149
rfingers 7.12502
rthumb 9.43159 -15.5541
lclavicle 9.59136e-015 -2.3059e-014
lhumerus -34.1149 22.3702 56.7031
lradius 129.175
lwrist 209.901
lhand -6.51262 19.6592
lfingers 7.12502
lthumb 19.3395 48.7175
rfemur 9.27245 -5.29442 10.3003
rtibia 44.7431
rfoot -20.7175 3.90406
rtoes 0.613116
lfemur -64.1403 8.55382 -24.082
ltibia 107.878
lfoot 14.9941 2.66829
ltoes -17.8306
196
root 4.29758 16.7813 -2.10461 -834.648 -79.2868 805.531
lowerback 26.6652 1.74246 2.82212
upperback 9.89921 1.51364 -6.65519
thorax -3.39323 0.507329 -9.45454
lowerneck 17.6674 14.6813 1.6072
upperneck 20.0748 18.4459 0.0738835
head 4.09751 8.73117 -0.566125
rclavicle -6.1996e-014 -1.03368e-014
rhumerus -47.2955 -5.48073 -80.3952
rradius 23.6533
rwrist 24.9665
rhand -16.6887 13.5225
rfingers 7.12502
rthumb 9.53568 -16.2418
lclavicle -6.1996e-014 -1.03368e-014
lhumerus -33.0518 22.2675 56.7585
lradius 129.263
lwrist 209.967
lhand -6.19769 19.6273
lfingers 7.12502
lthumb 19.6423 48.655
rfemur 7.8445 -5.9112 10.5987
rtibia 45.3513
rfoot -20.7717 4.01915
rtoes 1.08137
lfemur -62.8037 8.61287 -24.3044
ltibia 108.239
lfoot 15.3956 1.63929
ltoes -18.8058
197
root 4.31406 16.7737 -2.11755 -831.739 -79.6173 803.572
lowerback 25.9419 1.53706 2.86563
upperback 9.64618 1.34021 -6.33858
thorax -3.37575 0.435795 -9.03477
lowerneck 17.701 14.8252 1.69481
upperneck 19.3949 18.7229 -0.207731
head 3.88407 8.89856 -0.701302
rclavicle -1.88845e-014 6.36111e-014
rhumerus -47.829 -6.70497 -78.2722
rradius 22.6406
rwrist 26.5673
rhand -16.7221 12.7237
rfingers 7.12502
rthumb 9.50349 -17.042
lclavicle -1.88845e-014 6.36111e-014
lhumerus -31.9439 22.1151 56.8464
lradius 129.356
lwrist 210.059
lhand -5.81334 19.5084
lfingers 7.12502
lthumb 20.0118 48.4979
rfemur 6.53795 -6.47825 10.9228
rtibia 45.8982
rfoot -20.8398 4.04956
rtoes 1.35786
lfemur -61.2966 8.5977 -24.4586
ltibia 108.453
lfoot 15.9777 0.529932
ltoes -19.2051
198
root 4.32939 16.7655 -2.1306 -828.503 -79.9074 801.201
lowerback 25.2882 1.32216 2.89009
upperback 9.41152 1.13971 -6.03849
thorax -3.36925 0.348462 -8.62425
lowerneck 17.7185 14.9429 1.86166
upperneck 18.7198 18.9805 -0.549591
head 3.69408 9.06027 -0.863564
rclavicle -4.34344e-014 2.94201e-014
rhumerus -48.3855 -7.97616 -76.0945
rradius 21.7012
rwrist 28.0401
rhand -16.7716 11.8034
rfingers 7.12502
rthumb 9.45576 -17.9645
lclavicle -4.34344e-014 2.94201e-014
lhumerus -30.8559 21.9269 56.901
lradius 129.472
lwrist 210.154
lhand -5.42766 19.4129
lfingers 7.12502
lthumb 20.3825 48.3632
rfemur 5.35587 -6.99537 11.2478
rtibia 46.3875
rfoot -20.9316 3.99612
rtoes 1.52264
lfemur -59.6913 8.52956 -24.5802
ltibia 108.553
lfoot 16.7396 -0.671968
ltoes -19.2508
199
root 4.34495 16.7613 -2.14296 -824.993 -80.1391 798.546
lowerback 24.6451 1.10832 2.87623
upperback 9.17562 0.927397 -5.73319
thorax -3.36614 0.253769 -8.18826
lowerneck 17.7453 15.0661 1.99524
upperneck 18.0168 19.2386 -0.910938
head 3.49508 9.22045 -1.02902
rclavicle 6.13748e-015 -2.0276e-014
rhumerus -48.9701 -9.17989 -73.8741
rradius 20.8306
rwrist 29.3281
rhand -16.8897 10.8233
rfingers 7.12502
rthumb 9.34176 -18.9497
lclavicle 6.13748e-015 -2.0276e-014
lhumerus -29.7925 21.6958 56.9835
lradius 129.581
lwrist 210.228
lhand -5.04306 19.3005
lfingers 7.12502
lthumb 20.752 48.2109
rfemur 4.22036 -7.45982 11.5599
rtibia 46.8059
rfoot -21.0227 3.8922
rtoes 1.72111
lfemur -58.0951 8.39084 -24.663
ltibia 108.56
lfoot 17.6029 -1.75696
ltoes -18.9276
